<svg width="20" height="20" viewBox="0 0 20 20" fill="none" xmlns="http://www.w3.org/2000/svg">
<rect x="0.7" y="0.7" width="18.6" height="18.6" rx="3.3" fill="#F4F9FF"/>
<rect x="0.7" y="0.7" width="18.6" height="18.6" rx="3.3" stroke="#509BF7" stroke-width="1.4"/>
<path d="M2.5 10C2.5 9.55455 2.87273 9.18182 3.30909 9.18182H9.19091V3.30909C9.19091 2.87273 9.55455 2.5 10 2.5C10.4455 2.5 10.8182 2.87273 10.8182 3.30909V9.18182H16.6909C17.1273 9.18182 17.5 9.55455 17.5 10C17.5 10.4455 17.1273 10.8091 16.6909 10.8091H10.8182V16.6909C10.8182 17.1273 10.4455 17.5 10 17.5C9.55455 17.5 9.19091 17.1273 9.19091 16.6909V10.8091H3.30909C2.87273 10.8091 2.5 10.4455 2.5 10Z" fill="#509BF7"/>
</svg>
