<svg width="24" height="24" viewBox="0 0 24 24" fill="none" xmlns="http://www.w3.org/2000/svg">
<g id="Left Icon">
<path id="&#244;&#128;&#134;&#132;" d="M4.26109 19.7389C3.90794 19.3958 3.91803 18.8105 4.26109 18.4674L10.7186 11.9987L4.26109 5.54022C3.91803 5.19711 3.91803 4.6219 4.26109 4.2687C4.60414 3.90541 5.19944 3.9155 5.5425 4.2687L12 10.7272L18.4575 4.2687C18.8006 3.9155 19.3858 3.9155 19.7389 4.2687C20.0921 4.61181 20.082 5.19711 19.7389 5.54022L13.2814 11.9987L19.7389 18.4674C20.082 18.8105 20.082 19.3857 19.7389 19.7389C19.3959 20.0921 18.8006 20.082 18.4575 19.7389L12 13.2804L5.5425 19.7389C5.19944 20.082 4.61423 20.082 4.26109 19.7389Z" fill="#222222"/>
</g>
</svg>
