<svg width="24" height="25" viewBox="0 0 24 25" fill="none" xmlns="http://www.w3.org/2000/svg">
<g id="icon">
<path id="&#244;&#128;&#136;&#159;" d="M13.757 21.2295C12.958 21.2295 12.6916 20.5937 12.4339 19.7259L10.6296 13.5999L4.42625 11.7784C3.60143 11.5293 3 11.2629 3 10.4725C3 9.84524 3.55847 9.40706 4.28019 9.13212L19.0582 3.47006C19.4535 3.31541 19.8057 3.22949 20.0979 3.22949C20.6563 3.22949 21 3.57317 21 4.13164C21 4.42376 20.9141 4.77603 20.7594 5.17126L15.1317 19.872C14.8138 20.6968 14.3757 21.2295 13.757 21.2295ZM11.0162 12.2939L16.9274 6.38271C17.4 5.91016 18.1045 5.36028 18.6716 4.89632C18.0358 5.18844 17.3742 5.53212 16.6869 5.78987L5.07064 10.1889C4.94177 10.2405 4.9074 10.2834 4.9074 10.3436C4.9074 10.4037 4.95036 10.4381 5.08783 10.481L11.0162 12.2939ZM13.8945 19.3393C13.9547 19.3393 13.989 19.2877 14.0406 19.1588L18.4396 7.54262C18.6974 6.84668 19.0496 6.1851 19.3418 5.53212C18.8864 6.11637 18.3107 6.83808 17.8468 7.30205L11.9356 13.2133L13.7484 19.1417C13.7914 19.2791 13.8258 19.3393 13.8945 19.3393Z" fill="#BDBDBD"/>
</g>
</svg>
