<svg width="26" height="26" viewBox="0 0 26 26" fill="none" xmlns="http://www.w3.org/2000/svg">
<rect width="26" height="26" rx="13" fill="#222222" fill-opacity="0.6"/>
<path d="M9.25 13C9.25 12.8056 9.31902 12.6267 9.46472 12.4868L15.546 6.45219C15.6764 6.31999 15.8451 6.25 16.0445 6.25C16.4433 6.25 16.75 6.55328 16.75 6.95766C16.75 7.15207 16.6656 7.33093 16.5429 7.46313L10.9601 13L16.5429 18.5369C16.6656 18.6691 16.75 18.8401 16.75 19.0423C16.75 19.4467 16.4433 19.75 16.0445 19.75C15.8451 19.75 15.6764 19.68 15.546 19.54L9.46472 13.5132C9.31902 13.3655 9.25 13.1944 9.25 13Z" fill="white"/>
</svg>
