<svg width="26" height="26" viewBox="0 0 26 26" fill="none" xmlns="http://www.w3.org/2000/svg">
<rect width="26" height="26" rx="13" fill="#222222" fill-opacity="0.6"/>
<path d="M16.75 13C16.75 13.1944 16.6733 13.3655 16.5276 13.5132L10.454 19.54C10.316 19.68 10.1472 19.75 9.94785 19.75C9.55675 19.75 9.25 19.4467 9.25 19.0423C9.25 18.8401 9.32669 18.6691 9.44939 18.5369L15.0322 13L9.44939 7.46313C9.32669 7.33093 9.25 7.15207 9.25 6.95766C9.25 6.55328 9.55675 6.25 9.94785 6.25C10.1472 6.25 10.316 6.31999 10.454 6.45219L16.5276 12.4868C16.6733 12.6267 16.75 12.8056 16.75 13Z" fill="white"/>
</svg>
