<svg width="24" height="24" viewBox="0 0 24 24" fill="none" xmlns="http://www.w3.org/2000/svg">
<path d="M15.8298 11.3048C14.2524 11.3048 12.8951 9.91657 12.8951 8.12347C12.8951 6.35206 14.2597 5 15.8298 5C17.3925 5 18.7572 6.32314 18.7572 8.10901C18.7572 9.91657 17.3999 11.3048 15.8298 11.3048ZM7.37784 11.4711C6.01321 11.4711 4.82465 10.2564 4.82465 8.70189C4.82465 7.15462 6.02054 5.98331 7.37784 5.98331C8.74248 5.98331 9.93103 7.1257 9.93103 8.68743C9.93103 10.2564 8.74982 11.4711 7.37784 11.4711ZM3.29127 18C2.3595 18 2 17.6385 2 16.9805C2 14.985 4.06897 12.5773 7.37784 12.5773C8.74248 12.5773 9.79164 12.975 10.6134 13.51C9.02861 14.7102 8.09685 16.9082 8.85987 18H3.29127ZM11.215 18C10.0631 18 9.65224 17.6746 9.65224 17.0384C9.65224 15.173 12.022 12.599 15.8225 12.599C19.6302 12.599 22 15.173 22 17.0384C22 17.6746 21.5891 18 20.4299 18H11.215Z" fill="white"/>
</svg>
