<svg width="16" height="16" viewBox="0 0 16 16" fill="none" xmlns="http://www.w3.org/2000/svg">
<g id="&#235;&#130;&#180; &#237;&#148;&#132;&#235;&#161;&#156;&#237;&#149;&#132; &#235;&#178;&#132;&#237;&#138;&#188; &#237;&#131;&#128;&#236;&#158;&#133;">
<path id="&#244;&#128;&#135;&#191;" d="M2.82347 14C1.68798 14 1 13.2547 1 12.2884C1 11.9916 1.08015 11.6884 1.2605 11.4042L6.4437 2.86526C6.78435 2.29053 7.3855 2 8 2C8.6145 2 9.20897 2.29053 9.5563 2.86526L14.7395 11.4042C14.9065 11.6821 15 11.9916 15 12.2884C15 13.2547 14.312 14 13.1765 14H2.82347ZM8.00668 9.78105C8.33397 9.78105 8.52767 9.5979 8.53435 9.25684L8.63454 5.82737C8.64122 5.49263 8.36069 5.24632 8 5.24632C7.62595 5.24632 7.36546 5.48632 7.37214 5.82105L7.45897 9.25684C7.46565 9.59158 7.65935 9.78105 8.00668 9.78105ZM8.00668 11.8968C8.40076 11.8968 8.74809 11.6 8.74809 11.2211C8.74809 10.8358 8.40744 10.5389 8.00668 10.5389C7.59924 10.5389 7.25859 10.8421 7.25859 11.2211C7.25859 11.5937 7.60592 11.8968 8.00668 11.8968Z" fill="#F5535E"/>
</g>
</svg>
