<svg width="10" height="15" viewBox="0 0 10 15" fill="none" xmlns="http://www.w3.org/2000/svg">
<path id="&#244;&#128;&#142;&#167;" d="M0 9.28571C0 7.92793 1.08822 6.49292 2.89762 5.83655L3.11011 2.88288C2.16999 2.34878 1.3973 1.74389 1.06246 1.31274C0.895042 1.09395 0.817772 0.875161 0.817772 0.682111C0.817772 0.289575 1.11397 0 1.57115 0H8.43529C8.88603 0 9.18867 0.289575 9.18867 0.682111C9.18867 0.875161 9.10496 1.09395 8.93754 1.31274C8.60271 1.74389 7.83001 2.34878 6.88989 2.88288L7.10238 5.83655C8.91178 6.49292 10 7.92793 10 9.28571C10 9.83269 9.63297 10.1931 9.05344 10.1931H5.56987V13.1982C5.56987 14.1828 5.15776 15 5.00322 15C4.84224 15 4.43014 14.1828 4.43014 13.1982V10.1931H0.946555C0.367032 10.1931 0 9.83269 0 9.28571Z" fill="#509BF7"/>
</svg>
