<svg width="15" height="14" viewBox="0 0 15 14" fill="none" xmlns="http://www.w3.org/2000/svg">
<g id="icon">
<path id="&#244;&#128;&#134;&#137;" d="M5.41675 7C5.41675 6.89199 5.45509 6.79263 5.53604 6.71486L8.91453 3.36233C8.98696 3.28888 9.08069 3.25 9.19146 3.25C9.413 3.25 9.58341 3.41849 9.58341 3.64315C9.58341 3.75115 9.53655 3.85052 9.46838 3.92396L6.36682 7L9.46838 10.076C9.53655 10.1495 9.58341 10.2445 9.58341 10.3569C9.58341 10.5815 9.413 10.75 9.19146 10.75C9.08069 10.75 8.98696 10.7111 8.91453 10.6334L5.53604 7.28514C5.45509 7.20305 5.41675 7.10801 5.41675 7Z" fill="#222222"/>
</g>
</svg>
