<svg width="12" height="13" viewBox="0 0 12 13" fill="none" xmlns="http://www.w3.org/2000/svg">
<path d="M12 8.39711C12 10.8601 10.4 12.5 7.5619 12.5H6.09524C5.74603 12.5 5.51746 12.2428 5.51746 11.9277C5.51746 11.6125 5.74603 11.3553 6.09524 11.3553H7.55556C9.72063 11.3553 10.8635 10.0691 10.8635 8.3328C10.8635 6.60289 9.72063 5.39389 7.55556 5.39389H3.19365L1.70794 5.32958L2.90794 6.37138L4.74286 8.17846C4.8381 8.28135 4.89524 8.40354 4.89524 8.57074C4.89524 8.90514 4.67302 9.13666 4.33016 9.13666C4.19683 9.13666 4.03175 9.07235 3.92381 8.95659L0.190476 5.24598C0.0634921 5.12379 0 4.97588 0 4.82154C0 4.66077 0.0634921 4.51286 0.190476 4.39068L3.92381 0.680064C4.03175 0.57074 4.19683 0.5 4.33016 0.5C4.67302 0.5 4.89524 0.731511 4.89524 1.06592C4.89524 1.23312 4.8381 1.35531 4.74286 1.4582L2.90794 3.2717L1.70794 4.3135L3.19365 4.24277H7.46032C10.3556 4.24277 12 5.94051 12 8.39711Z" fill="white"/>
</svg>
