<svg width="24" height="24" viewBox="0 0 24 24" fill="current" xmlns="http://www.w3.org/2000/svg">
<path d="M3 10.2803C3 6.26609 6.29785 3 10.3511 3C14.4043 3 17.7021 6.26609 17.7021 10.2803C17.7021 11.9407 17.1402 13.4643 16.1914 14.6868L20.696 19.1754C20.8895 19.367 21 19.6315 21 19.9235C21 20.5347 20.567 21 19.9406 21C19.6459 21 19.3695 20.8996 19.1576 20.6898L14.6254 16.1921C13.4186 17.0497 11.9539 17.5606 10.3511 17.5606C6.29785 17.5606 3 14.2945 3 10.2803ZM4.57523 10.2803C4.57523 13.4369 7.16377 16.0005 10.3511 16.0005C13.5384 16.0005 16.1269 13.4369 16.1269 10.2803C16.1269 7.12367 13.5384 4.56006 10.3511 4.56006C7.16377 4.56006 4.57523 7.12367 4.57523 10.2803Z" fill="current"/>
</svg>