<svg width="31" height="30" viewBox="0 0 31 30" fill="none" xmlns="http://www.w3.org/2000/svg">
<rect x="0.665" y="0.165" width="29.67" height="29.67" rx="14.835" fill="#F4F9FF"/>
<rect x="0.665" y="0.165" width="29.67" height="29.67" rx="14.835" stroke="#C9E0FD" stroke-width="0.33"/>
<path d="M11.75 15C11.75 14.7773 11.9364 14.5909 12.1545 14.5909H15.0955V11.6545C15.0955 11.4364 15.2773 11.25 15.5 11.25C15.7227 11.25 15.9091 11.4364 15.9091 11.6545V14.5909H18.8455C19.0636 14.5909 19.25 14.7773 19.25 15C19.25 15.2227 19.0636 15.4045 18.8455 15.4045H15.9091V18.3455C15.9091 18.5636 15.7227 18.75 15.5 18.75C15.2773 18.75 15.0955 18.5636 15.0955 18.3455V15.4045H12.1545C11.9364 15.4045 11.75 15.2227 11.75 15Z" fill="#222222"/>
</svg>
