<svg width="36" height="36" viewBox="0 0 36 36" fill="none" xmlns="http://www.w3.org/2000/svg">
<rect width="36" height="36" rx="18" fill="#509BF7"/>
<path d="M10.557 25C8.85505 25 8 24.182 8 22.5616V14.3262C8 12.7058 8.85505 11.8956 10.557 11.8956H12.829C13.4642 11.8956 13.6678 11.7619 14.0342 11.3765L14.6857 10.6686C15.0928 10.236 15.5081 10 16.3469 10H19.5961C20.4349 10 20.8502 10.236 21.2573 10.6686L21.9088 11.3765C22.2752 11.7698 22.4707 11.8956 23.114 11.8956H25.443C27.1368 11.8956 28 12.7058 28 14.3262V22.5616C28 24.182 27.1368 25 25.443 25H10.557ZM18 22.6796C20.4593 22.6796 22.4381 20.7761 22.4381 18.377C22.4381 15.9858 20.4674 14.0823 18 14.0823C15.5326 14.0823 13.5537 15.9858 13.5537 18.377C13.5537 20.7761 15.5326 22.6796 18 22.6796ZM22.9837 15.4824C22.9837 16.0488 23.4723 16.4971 24.0423 16.4971C24.6042 16.4893 25.0847 16.0409 25.0847 15.4824C25.0847 14.9476 24.6042 14.4756 24.0423 14.4756C23.4723 14.4756 22.9837 14.9476 22.9837 15.4824ZM18 21.484C16.2329 21.484 14.7834 20.1075 14.7834 18.377C14.7834 16.6544 16.2248 15.2701 18 15.2701C19.7752 15.2701 21.2085 16.6544 21.2085 18.377C21.2085 20.1075 19.7752 21.484 18 21.484Z" fill="white"/>
</svg>
