<svg width="14" height="12" viewBox="0 0 14 12" fill="none" xmlns="http://www.w3.org/2000/svg">
<path d="M2.44444 12C1.96914 12 1.83333 11.6374 2.07407 11.3496C2.30864 11.0619 2.92593 10.4288 3.27161 9.89928C3.32099 9.81295 3.29012 9.72662 3.19753 9.68058C1.21605 8.69065 0 7.07338 0 5.23165C0 2.33669 3.11111 0 7 0C10.8889 0 14 2.33669 14 5.23165C14 8.09784 11.0494 10.4576 6.59877 10.4576C6.51852 10.4576 6.43827 10.4518 6.35803 10.446C6.27161 10.446 6.18519 10.4748 6.08025 10.5439C5.03086 11.246 3.18519 12 2.44444 12Z" fill="#509BF7"/>
</svg>
