<svg width="12" height="15" viewBox="0 0 12 15" fill="none" xmlns="http://www.w3.org/2000/svg">
<path d="M0 13.128V4.84698C0 3.60095 0.610269 2.97496 1.81907 2.97496H2.84597V1.87202C2.84597 0.631955 3.45623 0 4.66504 0H6.91247C7.54034 0 8.03325 0.16097 8.44988 0.596184L11.4132 3.65461C11.8533 4.11367 12 4.5787 12 5.312V10.153C12 11.3931 11.3897 12.025 10.1809 12.025H9.15403V13.128C9.15403 14.368 8.54963 15 7.33496 15H1.81907C0.604401 15 0 14.374 0 13.128ZM8.59658 6.88593C9.06602 7.3748 9.15403 7.70866 9.15403 8.47178V11.0652H10.1281C10.7384 11.0652 11.0553 10.7313 11.0553 10.1351V5.03776H8.30905C7.63423 5.03776 7.30562 4.70986 7.30562 4.01828V0.959857H4.71198C4.10171 0.959857 3.79071 1.29968 3.79071 1.8899V2.97496H3.89046C4.54768 2.97496 4.91736 3.07631 5.36333 3.54134L8.59658 6.88593ZM8.15648 3.8752C8.15648 4.08386 8.23863 4.17329 8.44401 4.17329H10.8088L8.15648 1.43084V3.8752ZM0.944743 13.1101C0.944743 13.7063 1.25575 14.0401 1.86015 14.0401H7.28802C7.89242 14.0401 8.20929 13.7063 8.20929 13.1101V8.51947H4.89389C4.16626 8.51947 3.79071 8.14388 3.79071 7.39269V3.93482H1.86601C1.25575 3.93482 0.944743 4.27464 0.944743 4.8589V13.1101ZM5.00538 7.61924H8.02738L4.67677 4.15541V7.28537C4.67677 7.52385 4.77066 7.61924 5.00538 7.61924Z" fill="#222222"/>
</svg>
