<svg width="14" height="14" viewBox="0 0 14 14" fill="none" xmlns="http://www.w3.org/2000/svg">
<g id="icon">
<path id="&#244;&#128;&#134;&#132;" d="M1.92134 12.0786C1.68959 11.8535 1.69621 11.4694 1.92134 11.2442L6.15907 6.99917L1.92134 2.76077C1.69621 2.5356 1.69621 2.15812 1.92134 1.92633C2.14647 1.68792 2.53714 1.69455 2.76226 1.92633L7 6.16474L11.2377 1.92633C11.4629 1.69455 11.8469 1.69455 12.0787 1.92633C12.3104 2.1515 12.3038 2.5356 12.0787 2.76077L7.84093 6.99917L12.0787 11.2442C12.3038 11.4694 12.3038 11.8468 12.0787 12.0786C11.8535 12.3104 11.4629 12.3038 11.2377 12.0786L7 7.84023L2.76226 12.0786C2.53714 12.3038 2.15309 12.3038 1.92134 12.0786Z" fill="#BDBDBD"/>
</g>
</svg>
