<svg width="19" height="18" viewBox="0 0 19 18" fill="none" xmlns="http://www.w3.org/2000/svg">
<rect x="0.5" width="18" height="18" rx="9" fill="#3C74B9"/>
<path d="M6.92053 11.5795C6.80281 11.4652 6.80617 11.2701 6.92053 11.1557L9.07303 8.9995L6.92053 6.84666C6.80617 6.73229 6.80617 6.54055 6.92053 6.42282C7.03488 6.30172 7.23331 6.30508 7.34766 6.42282L9.50016 8.57566L11.6527 6.42282C11.767 6.30508 11.9621 6.30508 12.0798 6.42282C12.1975 6.53719 12.1942 6.73229 12.0798 6.84666L9.9273 8.9995L12.0798 11.1557C12.1942 11.2701 12.1942 11.4618 12.0798 11.5795C11.9654 11.6973 11.767 11.6939 11.6527 11.5795L9.50016 9.4267L7.34766 11.5795C7.23331 11.6939 7.03824 11.6939 6.92053 11.5795Z" fill="white"/>
</svg>
