<svg width="24" height="24" viewBox="0 0 24 24" fill="none" xmlns="http://www.w3.org/2000/svg">
<path d="M6.94887 21C4.97979 21 4 20.0784 4 18.2262V4.78265C4 2.93937 4.9893 2 6.94887 2H11.3151V8.50466C11.3151 9.63899 11.8954 10.1796 13.113 10.1796H20V18.2262C20 20.0695 19.0202 21 17.0511 21H6.94887ZM13.1415 8.96549C12.7895 8.96549 12.6183 8.80597 12.6183 8.48694V2.09748C13.0178 2.15951 13.4078 2.41651 13.8549 2.84188L19.0963 7.81343C19.5529 8.24767 19.8288 8.60215 19.8858 8.96549H13.1415ZM8.27111 14.0345H15.7574C16.1189 14.0345 16.3948 13.7864 16.3948 13.4585C16.3948 13.1306 16.1189 12.8736 15.7574 12.8736H8.27111C7.90012 12.8736 7.62426 13.1306 7.62426 13.4585C7.62426 13.7864 7.90012 14.0345 8.27111 14.0345ZM8.27111 17.3932H15.7574C16.1189 17.3932 16.3948 17.1451 16.3948 16.8172C16.3948 16.4893 16.1189 16.2323 15.7574 16.2323H8.27111C7.90012 16.2323 7.62426 16.4893 7.62426 16.8172C7.62426 17.1451 7.90012 17.3932 8.27111 17.3932Z" fill="white"/>
</svg>
