<svg width="16" height="16" viewBox="0 0 16 16" fill="none" xmlns="http://www.w3.org/2000/svg">
<g id="&#244;&#128;&#129;&#157;">
<path id="&#244;&#128;&#129;&#157;_2" d="M8 16C3.63137 16 0 12.3686 0 8C0 3.62353 3.62353 0 7.99216 0C12.3686 0 16 3.62353 16 8C16 12.3686 12.3765 16 8 16ZM7.83529 9.67843C8.24314 9.67843 8.49412 9.41961 8.49412 9.09804V9.00392C8.49412 8.54902 8.75294 8.25882 9.31765 7.8902C10.102 7.37255 10.6667 6.90196 10.6667 5.92941C10.6667 4.58039 9.46667 3.86667 8.08627 3.86667C6.6902 3.86667 5.78039 4.51765 5.56078 5.26274C5.52157 5.38824 5.4902 5.52157 5.4902 5.66274C5.4902 6.02353 5.78039 6.21961 6.04706 6.21961C6.32157 6.21961 6.50196 6.08627 6.65098 5.89804L6.79216 5.70196C7.08235 5.23137 7.49804 4.96471 8.03922 4.96471C8.76863 4.96471 9.24706 5.38039 9.24706 5.99216C9.24706 6.54118 8.9098 6.80784 8.20392 7.30196C7.62353 7.7098 7.18431 8.13333 7.18431 8.93333V9.03529C7.18431 9.45882 7.41961 9.67843 7.83529 9.67843ZM7.81961 12.0863C8.2902 12.0863 8.69804 11.7176 8.69804 11.2471C8.69804 10.7765 8.29804 10.4 7.81961 10.4C7.34118 10.4 6.94118 10.7843 6.94118 11.2471C6.94118 11.7098 7.34902 12.0863 7.81961 12.0863Z" fill="#222222"/>
</g>
</svg>
