<svg width="24" height="24" viewBox="0 0 24 24" fill="none" xmlns="http://www.w3.org/2000/svg">
<g id="Right Icon">
<path id="&#244;&#128;&#142;&#158;" d="M6.02199 21C4.76393 21 4.03372 20.3058 4.03372 19.1059V10.9298L2.89003 11.8725C2.70528 12.0182 2.50293 12.1468 2.2566 12.1468C1.78152 12.1468 1.5 11.8125 1.5 11.4611C1.5 11.264 1.58798 11.0583 1.78152 10.9041L10.9487 3.40495C11.6085 2.86502 12.4179 2.86502 13.0689 3.40495L17.6965 7.19307V5.45328C17.6965 5.07618 17.9516 4.83621 18.3299 4.83621H19.2713C19.6584 4.83621 19.9047 5.07618 19.9047 5.45328V9.00143L22.2273 10.9041C22.412 11.0583 22.5 11.2297 22.5 11.4868C22.5 11.8982 22.1657 12.1468 21.7522 12.1468C21.5059 12.1468 21.3035 12.0182 21.1276 11.8725L19.9047 10.8698V19.1059C19.9047 20.3058 19.1745 21 17.9252 21H6.02199ZM14.5381 13.878V19.6202H17.6261C18.1804 19.6202 18.4883 19.3116 18.4883 18.7546V9.71277L12.3211 4.67337C12.1276 4.50196 11.89 4.50196 11.6965 4.67337L5.45015 9.77277V18.7546C5.45015 19.3116 5.75806 19.6202 6.32111 19.6202H9.46188V13.878C9.46188 13.4838 9.72581 13.2266 10.1393 13.2266H13.8695C14.2742 13.2266 14.5381 13.4838 14.5381 13.878Z" fill="black"/>
</g>
</svg>
