<svg width="29" height="26" viewBox="0 0 29 26" fill="none" xmlns="http://www.w3.org/2000/svg">
<path d="M14.5 24.9943C3.87143 25.1567 1.07143 21.8142 1 20.1227C2.07143 13.6273 5.5 2.46322 6.57143 1.44831C7.42857 0.636379 8.15254 1.11 8.40739 1.44831C10.0476 3.72171 11.2954 7.67311 11.7143 9.36463C12.5266 9.01488 13.5271 8.90367 14.5 8.91744C15.4729 8.90367 16.4734 9.01488 17.2857 9.36463C17.7046 7.67311 18.9524 3.72171 20.5926 1.44831C20.8475 1.11 21.5714 0.636379 22.4286 1.44831C23.5 2.46322 26.9286 13.6273 28 20.1227C27.9286 21.8142 25.1286 25.1567 14.5 24.9943Z" fill="#0011FF"/>
<path d="M14.627 8.91994C13.6146 8.89444 12.562 8.99964 11.7143 9.36463C11.2954 7.67311 10.0476 3.72171 8.40739 1.44831C8.15254 1.11 7.42857 0.636379 6.57143 1.44831C5.5 2.46322 2.07143 13.6273 1 20.1227C1.07143 21.8142 3.87143 25.1567 14.5 24.9943C25.1286 25.1567 27.9286 21.8142 28 20.1227C26.9286 13.6273 23.5 2.46322 22.4286 1.44831C21.5714 0.636379 20.8475 1.11 20.5926 1.44831C18.9524 3.72171 17.7046 7.67311 17.2857 9.36463C16.438 8.99964 15.3854 8.89443 14.373 8.91994" stroke="#0011FF" stroke-width="0.428571"/>
<path d="M10.657 13.3284C8.25702 11.2712 4.94274 13.0426 3.58559 14.1855C3.58559 15.2569 3.15702 18.0426 7.01417 19.5426C10.0999 20.7426 12.2999 19.3284 13.0142 18.4712C13.2285 17.6141 13.057 15.3855 10.657 13.3284Z" fill="white" stroke="#0011FF" stroke-width="0.428571"/>
<path d="M17.6241 13.3585C19.8852 11.1496 23.3077 12.7017 24.7363 13.7539C24.806 14.8231 25.4149 17.575 21.6635 19.3227C18.6624 20.7209 16.375 19.4527 15.6065 18.6438C15.3369 17.8024 15.363 15.5674 17.6241 13.3585Z" fill="white" stroke="#0011FF" stroke-width="0.428571"/>
<path d="M10.4286 14.0962C10.5325 14.0962 10.8026 14.1926 11.052 14.5783C11.3636 15.0605 11.3636 16.989 11.052 17.4712C10.8026 17.8569 10.5325 17.9533 10.4286 17.9533" stroke="#0011FF" stroke-width="0.428571"/>
<path d="M10.4286 14.0962C10.3247 14.0962 10.0545 14.1926 9.8052 14.5783C9.49351 15.0605 9.49351 16.989 9.8052 17.4712C10.0545 17.8569 10.3247 17.9533 10.4286 17.9533" stroke="#0011FF" stroke-width="0.428571"/>
<path d="M11.0714 16.0248C11.0714 16.5345 10.9792 16.9857 10.8388 17.3014C10.7686 17.4596 10.6904 17.5743 10.6145 17.6466C10.5396 17.7178 10.4772 17.739 10.4286 17.739C10.3799 17.739 10.3175 17.7178 10.2427 17.6466C10.1667 17.5743 10.0886 17.4596 10.0183 17.3014C9.87797 16.9857 9.78571 16.5345 9.78571 16.0248C9.78571 15.515 9.87797 15.0638 10.0183 14.7481C10.0886 14.59 10.1667 14.4752 10.2427 14.403C10.3175 14.3318 10.3799 14.3105 10.4286 14.3105C10.4772 14.3105 10.5396 14.3318 10.6145 14.403C10.6904 14.4752 10.7686 14.59 10.8388 14.7481C10.9792 15.0638 11.0714 15.515 11.0714 16.0248Z" fill="#0011FF" stroke="#0011FF" stroke-width="0.428571"/>
<path d="M22 13.8569C22.1039 13.8569 22.374 13.9534 22.6234 14.3391C22.9351 14.8212 22.9351 16.7498 22.6234 17.2319C22.374 17.6176 22.1039 17.7141 22 17.7141" stroke="#0011FF" stroke-width="0.428571"/>
<path d="M22 13.8569C21.8961 13.8569 21.626 13.9534 21.3766 14.3391C21.0649 14.8212 21.0649 16.7498 21.3766 17.2319C21.626 17.6176 21.8961 17.7141 22 17.7141" stroke="#0011FF" stroke-width="0.428571"/>
<path d="M22.6429 15.7855C22.6429 16.2953 22.5506 16.7465 22.4103 17.0622C22.34 17.2203 22.2619 17.335 22.1859 17.4073C22.1111 17.4785 22.0486 17.4998 22 17.4998C21.9514 17.4998 21.8889 17.4785 21.8141 17.4073C21.7381 17.335 21.66 17.2203 21.5897 17.0622C21.4494 16.7465 21.3571 16.2953 21.3571 15.7855C21.3571 15.2758 21.4494 14.8246 21.5897 14.5088C21.66 14.3507 21.7381 14.236 21.8141 14.1637C21.8889 14.0925 21.9514 14.0712 22 14.0712C22.0486 14.0712 22.1111 14.0925 22.1859 14.1637C22.2619 14.236 22.34 14.3507 22.4103 14.5088C22.5506 14.8246 22.6429 15.2758 22.6429 15.7855Z" fill="#0011FF" stroke="#0011FF" stroke-width="0.428571"/>
</svg>
