<svg width="24" height="24" viewBox="0 0 24 24" fill="none" xmlns="http://www.w3.org/2000/svg">
<g id="icon">
<path id="&#244;&#128;&#140;&#159;" d="M4.557 19C2.85505 19 2 18.182 2 16.5616V8.32617C2 6.70582 2.85505 5.89565 4.557 5.89565H6.82899C7.46417 5.89565 7.66775 5.76193 8.0342 5.37651L8.68567 4.66859C9.09283 4.23597 9.50814 4 10.3469 4H13.5961C14.4349 4 14.8502 4.23597 15.2573 4.66859L15.9088 5.37651C16.2752 5.7698 16.4707 5.89565 17.114 5.89565H19.443C21.1368 5.89565 22 6.70582 22 8.32617V16.5616C22 18.182 21.1368 19 19.443 19H4.557ZM12 16.6796C14.4593 16.6796 16.4381 14.7761 16.4381 12.377C16.4381 9.98584 14.4674 8.08233 12 8.08233C9.53257 8.08233 7.55375 9.98584 7.55375 12.377C7.55375 14.7761 9.53257 16.6796 12 16.6796ZM16.9837 9.48243C16.9837 10.0488 17.4723 10.4971 18.0423 10.4971C18.6042 10.4893 19.0847 10.0409 19.0847 9.48243C19.0847 8.94756 18.6042 8.47562 18.0423 8.47562C17.4723 8.47562 16.9837 8.94756 16.9837 9.48243ZM12 15.484C10.2329 15.484 8.78339 14.1075 8.78339 12.377C8.78339 10.6544 10.2248 9.27006 12 9.27006C13.7752 9.27006 15.2085 10.6544 15.2085 12.377C15.2085 14.1075 13.7752 15.484 12 15.484Z" fill="#509BF7"/>
</g>
</svg>
