<svg width="12" height="12" viewBox="0 0 12 12" fill="none" xmlns="http://www.w3.org/2000/svg">
<rect width="12" height="12" rx="6" fill="#3C74B9"/>
<path d="M3.09791 8.90208C2.96548 8.77341 2.96926 8.55392 3.09791 8.42526L5.51947 5.99953L3.09791 3.57758C2.96926 3.44892 2.96926 3.23321 3.09791 3.10076C3.22655 2.96453 3.44979 2.96831 3.57844 3.10076L6 5.52271L8.42156 3.10076C8.55021 2.96831 8.76966 2.96831 8.90209 3.10076C9.03452 3.22943 9.03074 3.44892 8.90209 3.57758L6.48053 5.99953L8.90209 8.42526C9.03074 8.55392 9.03074 8.76963 8.90209 8.90208C8.77345 9.03453 8.55021 9.03074 8.42156 8.90208L6 6.48013L3.57844 8.90208C3.44979 9.03074 3.23034 9.03074 3.09791 8.90208Z" fill="white"/>
</svg>
