<svg width="15" height="14" viewBox="0 0 15 14" fill="none" xmlns="http://www.w3.org/2000/svg">
<g id="icon">
<path id="&#244;&#128;&#134;&#138;" d="M9.58341 7C9.58341 7.10801 9.54081 7.20305 9.45986 7.28514L6.08563 10.6334C6.00894 10.7111 5.91521 10.75 5.80444 10.75C5.58716 10.75 5.41675 10.5815 5.41675 10.3569C5.41675 10.2445 5.45935 10.1495 5.52752 10.076L8.62909 7L5.52752 3.92396C5.45935 3.85052 5.41675 3.75115 5.41675 3.64315C5.41675 3.41849 5.58716 3.25 5.80444 3.25C5.91521 3.25 6.00894 3.28888 6.08563 3.36233L9.45986 6.71486C9.54081 6.79263 9.58341 6.89199 9.58341 7Z" fill="#222222"/>
</g>
</svg>
