<svg width="13" height="12" viewBox="0 0 13 12" fill="none" xmlns="http://www.w3.org/2000/svg">
<g id="small icon">
<path id="&#244;&#128;&#136;&#160;" d="M7.67136 12C7.13866 12 6.9611 11.5761 6.78926 10.9976L5.87852 7.97327C5.76969 7.5895 5.78687 7.39475 6.01026 7.1599L11.8585 0.853461C11.9272 0.778998 11.9215 0.693079 11.8642 0.6358C11.8069 0.584248 11.721 0.572792 11.6465 0.641527L5.36301 6.51265C5.11671 6.74177 4.9105 6.75322 4.54391 6.63866L1.45084 5.69928C0.900955 5.53317 0.5 5.35561 0.5 4.82864C0.5 4.4105 0.872315 4.11838 1.35346 3.93508L11.2055 0.160382C11.469 0.0572792 11.7038 0 11.8986 0C12.2709 0 12.5 0.229117 12.5 0.601432C12.5 0.796181 12.4427 1.03103 12.3396 1.29451L8.58783 11.095C8.3759 11.6449 8.08377 12 7.67136 12Z" fill="white"/>
</g>
</svg>
