<svg width="60" height="60" viewBox="0 0 60 60" fill="none" xmlns="http://www.w3.org/2000/svg">
<path d="M35.8568 60C33.1933 60 32.3055 57.8807 31.4463 54.9881L26.8926 39.8663C26.3484 37.9475 26.4344 36.9737 27.5513 35.7995L56.7924 4.2673C57.136 3.89499 57.1074 3.46539 56.821 3.179C56.5346 2.92124 56.105 2.86396 55.7327 3.20764L24.315 32.5632C23.0835 33.7088 22.0525 33.7661 20.2196 33.1933L4.75418 28.4964C2.00477 27.6659 0 26.778 0 24.1432C0 22.0525 1.86158 20.5919 4.2673 19.6754L53.5274 0.801909C54.8449 0.286396 56.0191 0 56.9928 0C58.8544 0 60 1.14558 60 3.00716C60 3.98091 59.7136 5.15513 59.1981 6.47255L40.4391 55.4749C39.3795 58.2243 37.9189 60 35.8568 60Z" fill="#509BF7"/>
</svg>
