<svg width="14" height="16" viewBox="0 0 14 16" fill="none" xmlns="http://www.w3.org/2000/svg">
<path d="M3 10.6667C3 9.3994 3.97939 8.06006 5.60786 7.44745L5.7991 4.69069C4.95299 4.19219 4.25757 3.62763 3.95621 3.22523C3.80554 3.02102 3.73599 2.81682 3.73599 2.63664C3.73599 2.27027 4.00258 2 4.41404 2H10.5918C10.9974 2 11.2698 2.27027 11.2698 2.63664C11.2698 2.81682 11.1945 3.02102 11.0438 3.22523C10.7424 3.62763 10.047 4.19219 9.2009 4.69069L9.39214 7.44745C11.0206 8.06006 12 9.3994 12 10.6667C12 11.1772 11.6697 11.5135 11.1481 11.5135H8.01288V14.3183C8.01288 15.2372 7.64198 16 7.5029 16C7.35802 16 6.98712 15.2372 6.98712 14.3183V11.5135H3.8519C3.33033 11.5135 3 11.1772 3 10.6667Z" fill="#509BF7"/>
</svg>
