<svg width="19" height="19" viewBox="0 0 19 19" fill="none" xmlns="http://www.w3.org/2000/svg">
<g id="icon">
<path id="&#244;&#128;&#134;&#133;" d="M7.67604 17C7.30169 17 7.03181 16.8332 6.77064 16.4909L2.25236 10.6893C2.08695 10.4786 1.99989 10.2504 1.99989 10.0486C1.99989 9.56583 2.33942 9.22352 2.83564 9.22352C3.14905 9.22352 3.36669 9.3464 3.58434 9.6536L7.64121 15.0076L15.459 2.44763C15.6679 2.1141 15.8594 2 16.2077 2C16.6865 2 16.9999 2.31597 16.9999 2.79871C16.9999 3.00059 16.939 3.19368 16.7822 3.44822L8.55532 16.5085C8.34638 16.8332 8.05038 17 7.67604 17Z" fill="#509BF7"/>
</g>
</svg>
