<svg width="24" height="24" viewBox="0 0 24 24" fill="none" xmlns="http://www.w3.org/2000/svg">
<path d="M11.1196 22C10.622 22 10.2584 21.7033 10.1435 21.2153L9.64593 19.11C9.27273 18.9856 8.91866 18.8421 8.5933 18.689L6.75598 19.8182C6.3445 20.0766 5.86603 20.0383 5.52153 19.6938L4.29665 18.4689C3.95215 18.1244 3.89474 17.6268 4.18182 17.2153L5.30144 15.3876C5.14833 15.0526 5.00478 14.7081 4.89952 14.3636L2.77512 13.8565C2.28708 13.7512 2 13.3876 2 12.89V11.1579C2 10.6699 2.28708 10.3062 2.77512 10.201L4.88038 9.69378C5.00478 9.30144 5.15789 8.94737 5.2823 8.65072L4.16268 6.79426C3.88517 6.38277 3.92344 5.91388 4.27751 5.56938L5.52153 4.33493C5.8756 4 6.30622 3.95215 6.72727 4.19139L8.58373 5.33971C8.90909 5.16746 9.27273 5.02392 9.64593 4.89952L10.1435 2.78469C10.2584 2.29665 10.622 2 11.1196 2H12.8804C13.378 2 13.7416 2.29665 13.8469 2.78469L14.3445 4.91866C14.7368 5.04306 15.0909 5.1866 15.3971 5.34928L17.2727 4.19139C17.6938 3.95215 18.1148 4.00957 18.4689 4.33493L19.7225 5.56938C20.0766 5.91388 20.1053 6.38277 19.8373 6.79426L18.7081 8.65072C18.8421 8.94737 18.9952 9.30144 19.1196 9.69378L21.2249 10.201C21.7129 10.3062 22 10.6699 22 11.1579V12.89C22 13.3876 21.7129 13.7512 21.2249 13.8565L19.1005 14.3636C18.9952 14.7081 18.8517 15.0526 18.689 15.3876L19.8182 17.2153C20.0957 17.6268 20.0478 18.1244 19.7033 18.4689L18.4689 19.6938C18.1244 20.0383 17.6555 20.0766 17.244 19.8182L15.3971 18.689C15.0813 18.8421 14.7177 18.9856 14.3445 19.11L13.8469 21.2153C13.7416 21.7033 13.378 22 12.8804 22H11.1196ZM12 15.378C13.8565 15.378 15.378 13.8469 15.378 11.9904C15.378 10.1435 13.8565 8.62201 12 8.62201C10.1435 8.62201 8.62201 10.1435 8.62201 11.9904C8.62201 13.8469 10.1435 15.378 12 15.378Z" fill="#222222"/>
</svg>
