<svg width="24" height="24" viewBox="0 0 24 24" fill="none" xmlns="http://www.w3.org/2000/svg">
<path d="M10 4.03644C10 2.91104 10.8865 2 11.9947 2C13.1029 2 14 2.91104 14 4.03644C14 5.16184 13.1029 6.06216 11.9947 6.06216C10.8865 6.06216 10 5.16184 10 4.03644ZM10 12C10 10.8746 10.8865 9.96356 11.9947 9.96356C13.1029 9.96356 14 10.8746 14 12C14 13.1254 13.1029 14.0257 11.9947 14.0257C10.8865 14.0257 10 13.1254 10 12ZM10 19.9636C10 18.8382 10.8865 17.9271 11.9947 17.9271C13.1029 17.9271 14 18.8382 14 19.9636C14 21.089 13.1029 22 11.9947 22C10.8865 22 10 21.089 10 19.9636Z" fill="#888888"/>
</svg>
