<svg width="25" height="24" viewBox="0 0 25 24" fill="none" xmlns="http://www.w3.org/2000/svg">
<path d="M5.057 19C3.35505 19 2.5 18.182 2.5 16.5616V8.32617C2.5 6.70582 3.35505 5.89565 5.057 5.89565H7.32899C7.96417 5.89565 8.16775 5.76193 8.5342 5.37651L9.18567 4.66859C9.59283 4.23597 10.0081 4 10.8469 4H14.0961C14.9349 4 15.3502 4.23597 15.7573 4.66859L16.4088 5.37651C16.7752 5.7698 16.9707 5.89565 17.614 5.89565H19.943C21.6368 5.89565 22.5 6.70582 22.5 8.32617V16.5616C22.5 18.182 21.6368 19 19.943 19H5.057ZM12.5 16.6796C14.9593 16.6796 16.9381 14.7761 16.9381 12.377C16.9381 9.98584 14.9674 8.08233 12.5 8.08233C10.0326 8.08233 8.05375 9.98584 8.05375 12.377C8.05375 14.7761 10.0326 16.6796 12.5 16.6796ZM17.4837 9.48243C17.4837 10.0488 17.9723 10.4971 18.5423 10.4971C19.1042 10.4893 19.5847 10.0409 19.5847 9.48243C19.5847 8.94756 19.1042 8.47562 18.5423 8.47562C17.9723 8.47562 17.4837 8.94756 17.4837 9.48243ZM12.5 15.484C10.7329 15.484 9.28339 14.1075 9.28339 12.377C9.28339 10.6544 10.7248 9.27006 12.5 9.27006C14.2752 9.27006 15.7085 10.6544 15.7085 12.377C15.7085 14.1075 14.2752 15.484 12.5 15.484Z" fill="#509BF7"/>
</svg>
