<svg width="24" height="24" viewBox="0 0 24 24" fill="none" xmlns="http://www.w3.org/2000/svg">
<path d="M12.0052 7C11.7358 7 11.4974 7.10225 11.3005 7.29652L3.27979 15.3947C3.10363 15.5787 3 15.8037 3 16.0593C3 16.591 3.40415 17 3.94301 17C4.21244 17 4.45078 16.8978 4.61658 16.7342L12.0052 9.29039L19.3834 16.7342C19.5596 16.8978 19.7979 17 20.057 17C20.5959 17 21 16.591 21 16.0593C21 15.8037 20.8964 15.5787 20.7202 15.4049L12.6995 7.29652C12.5233 7.10225 12.2642 7 12.0052 7Z" fill="white"/>
</svg>
