<svg width="16" height="16" viewBox="0 0 16 16" fill="none" xmlns="http://www.w3.org/2000/svg">
<g id="&#235;&#130;&#180; &#237;&#148;&#132;&#235;&#161;&#156;&#237;&#149;&#132; &#235;&#178;&#132;&#237;&#138;&#188; &#237;&#131;&#128;&#236;&#158;&#133;">
<path id="&#244;&#128;&#137;&#128;" d="M4.84304 14C3.61237 14 3 13.4179 3 12.2481V3.75746C3 2.59328 3.61831 2 4.84304 2H7.57194V6.10821C7.57194 6.82463 7.9346 7.16604 8.6956 7.16604H13V12.2481C13 13.4123 12.3876 14 11.157 14H4.84304ZM8.71344 6.39925C8.49346 6.39925 8.38644 6.29851 8.38644 6.09701V2.06157C8.63615 2.10075 8.8799 2.26306 9.15933 2.53172L12.4352 5.67164C12.7206 5.9459 12.893 6.16978 12.9287 6.39925H8.71344ZM5.66944 9.60075H10.3484C10.5743 9.60075 10.7467 9.44403 10.7467 9.23694C10.7467 9.02985 10.5743 8.86754 10.3484 8.86754H5.66944C5.43757 8.86754 5.26516 9.02985 5.26516 9.23694C5.26516 9.44403 5.43757 9.60075 5.66944 9.60075ZM5.66944 11.722H10.3484C10.5743 11.722 10.7467 11.5653 10.7467 11.3582C10.7467 11.1511 10.5743 10.9888 10.3484 10.9888H5.66944C5.43757 10.9888 5.26516 11.1511 5.26516 11.3582C5.26516 11.5653 5.43757 11.722 5.66944 11.722Z" fill="#00A881"/>
</g>
</svg>
